<?xml version="1.0" encoding="UTF-8" standalone="no"?>
<svg width="185px" height="212px" viewBox="0 0 185 212" version="1.1" xmlns="http://www.w3.org/2000/svg" xmlns:xlink="http://www.w3.org/1999/xlink" xmlns:sketch="http://www.bohemiancoding.com/sketch/ns">
    <!-- Generator: Sketch 3.3.2 (12043) - http://www.bohemiancoding.com/sketch -->
    <title>Slice 1</title>
    <desc>Created with Sketch.</desc>
    <defs></defs>
    <g id="Page-1" stroke="none" stroke-width="1" fill="none" fill-rule="evenodd" sketch:type="MSPage">
        <g id="finished" sketch:type="MSLayerGroup" stroke="#000000">
            <path d="M91.904,106 L91.904,0.812" id="Stroke-19" sketch:type="MSShapeGroup"></path>
            <path d="M0.809,53.406 L0.809,158.594" id="Stroke-20" sketch:type="MSShapeGroup"></path>
            <path d="M183,158.594 L183,53.406" id="Stroke-21" sketch:type="MSShapeGroup"></path>
            <path d="M183,53.406 L91.904,0.812" id="Stroke-22" sketch:type="MSShapeGroup"></path>
            <path d="M154.673,142.239 L154.673,65.874" id="Stroke-23" sketch:type="MSShapeGroup"></path>
            <path d="M120.231,122.355 L120.231,45.989" id="Stroke-24" sketch:type="MSShapeGroup"></path>
            <path d="M120.231,45.989 L154.673,65.874" id="Stroke-25" sketch:type="MSShapeGroup"></path>
            <path d="M91.904,0.812 L0.809,53.406" id="Stroke-26" sketch:type="MSShapeGroup"></path>
            <path d="M63.577,45.989 L29.136,65.874" id="Stroke-27" sketch:type="MSShapeGroup"></path>
            <path d="M63.577,93.532 L29.136,113.417" id="Stroke-28" sketch:type="MSShapeGroup"></path>
            <path d="M63.577,45.989 L63.577,93.532" id="Stroke-29" sketch:type="MSShapeGroup"></path>
            <path d="M29.136,65.874 L29.136,113.417" id="Stroke-30" sketch:type="MSShapeGroup"></path>
            <path d="M91.904,211.188 L137.452,184.891" id="Stroke-31" sketch:type="MSShapeGroup"></path>
            <path d="M137.452,184.891 L183,158.594" id="Stroke-32" sketch:type="MSShapeGroup"></path>
            <path d="M183,158.594 L137.452,132.297" id="Stroke-33" sketch:type="MSShapeGroup"></path>
            <path d="M137.452,132.297 L91.904,106" id="Stroke-34" sketch:type="MSShapeGroup"></path>
            <path d="M0.809,158.594 L46.357,184.891" id="Stroke-35" sketch:type="MSShapeGroup"></path>
            <path d="M46.357,184.891 L91.904,211.188" id="Stroke-36" sketch:type="MSShapeGroup"></path>
            <path d="M0.809,158.594 L46.357,132.297" id="Stroke-37" sketch:type="MSShapeGroup"></path>
            <path d="M46.357,132.297 L91.904,106" id="Stroke-38" sketch:type="MSShapeGroup"></path>
            <path d="M46.357,132.297 L137.452,184.891" id="Stroke-39" sketch:type="MSShapeGroup"></path>
            <path d="M137.452,132.297 L46.357,184.891" id="Stroke-40" sketch:type="MSShapeGroup"></path>
            <path d="M69.13,119.149 L160.226,171.743" id="Stroke-41" sketch:type="MSShapeGroup"></path>
            <path d="M23.583,145.446 L114.678,198.04" id="Stroke-42" sketch:type="MSShapeGroup"></path>
            <path d="M160.226,145.446 L69.13,198.04" id="Stroke-43" sketch:type="MSShapeGroup"></path>
            <path d="M114.678,119.149 L23.583,171.743" id="Stroke-44" sketch:type="MSShapeGroup"></path>
            <path d="M114.678,91.3 L114.678,80.966" id="Stroke-45" sketch:type="MSShapeGroup"></path>
            <path d="M102.924,84.514 L102.924,74.179" id="Stroke-46" sketch:type="MSShapeGroup"></path>
            <path d="M114.678,91.3 L102.924,84.514" id="Stroke-47" sketch:type="MSShapeGroup"></path>
            <path d="M114.678,80.966 L102.924,74.179" id="Stroke-48" sketch:type="MSShapeGroup"></path>
            <path d="M52.224,52.544 C53.121,65.05 56.233,73.906 61.561,79.298 L61.561,81.906 C59.187,87.556 57.87,92.595 57.61,96.977" id="Stroke-49" sketch:type="MSShapeGroup"></path>
            <path d="M40.489,59.319 C39.592,72.861 36.48,85.31 31.152,96.855 L31.152,99.462 C33.526,102.371 34.843,105.89 35.103,109.972" id="Stroke-50" sketch:type="MSShapeGroup"></path>
            <path d="M126.478,94.449 C126.766,94.615 127.076,94.734 127.376,94.77 C127.677,94.806 127.965,94.758 128.203,94.62 C128.442,94.483 128.628,94.257 128.747,93.979 C128.866,93.7 128.918,93.372 128.918,93.04 C128.918,92.708 128.866,92.32 128.747,91.904 C128.628,91.489 128.442,91.048 128.203,90.635 C127.965,90.223 127.677,89.841 127.376,89.53 C127.076,89.22 126.766,88.98 126.478,88.814 C126.19,88.648 125.88,88.529 125.58,88.493 C125.279,88.457 124.991,88.505 124.753,88.643 C124.514,88.781 124.328,89.006 124.209,89.284 C124.09,89.563 124.038,89.891 124.038,90.223 C124.038,90.555 124.09,90.943 124.209,91.359 C124.328,91.774 124.514,92.215 124.753,92.628 C124.991,93.04 125.279,93.422 125.58,93.733 C125.88,94.044 126.19,94.283 126.478,94.449 L126.478,94.449 Z" id="Stroke-92" sketch:type="MSShapeGroup"></path>
        </g>
    </g>
</svg>